HIERARCHY
ROOT Hips
{
	OFFSET 0.000000 71.427986 0.000000
	CHANNELS 6 Xposition Yposition Zposition Xrotation Yrotation Zrotation
	JOINT Pelvis
	{
		OFFSET 0.000000 0.000000 0.000000
		CHANNELS 3 Xrotation Yrotation Zrotation
		JOINT LeftUpLeg
		{
			OFFSET 6.797100 -2.508499 -1.318700
			CHANNELS 3 Xrotation Yrotation Zrotation
			JOINT LeftLeg
			{
				OFFSET 0.069008 -29.241863 0.690200
				CHANNELS 3 Xrotation Yrotation Zrotation
				JOINT LeftFoot
				{
					OFFSET -0.069008 -29.568123 -0.266800
					CHANNELS 3 Xrotation Yrotation Zrotation
					JOINT LeftToeBase
					{
						OFFSET 3.145500 -8.631000 16.059900
						CHANNELS 3 Xrotation Yrotation Zrotation
						End Site
						{
							OFFSET 0.000000 18.501587 0.000000
						}
					}
				}
			}
			JOINT Left_ShortSleeve
			{
				OFFSET 0.265923 -10.480953 1.153800
				CHANNELS 3 Xrotation Yrotation Zrotation
				End Site
				{
					OFFSET 1.725763 19.823879 0.000000
				}
			}
		}
		JOINT RightUpLeg
		{
			OFFSET -6.797100 -2.508499 -1.318700
			CHANNELS 3 Xrotation Yrotation Zrotation
			JOINT RightLeg
			{
				OFFSET -0.082453 -29.241932 0.688000
				CHANNELS 3 Xrotation Yrotation Zrotation
				JOINT RightFoot
				{
					OFFSET 0.082453 -29.568058 -0.264600
					CHANNELS 3 Xrotation Yrotation Zrotation
					JOINT RightToeBase
					{
						OFFSET -3.115300 -8.682800 16.113400
						CHANNELS 3 Xrotation Yrotation Zrotation
						End Site
						{
							OFFSET 0.000000 18.567114 0.000000
						}
					}
				}
			}
			JOINT Right_ShortSleeve
			{
				OFFSET -0.265923 -10.480953 1.153800
				CHANNELS 3 Xrotation Yrotation Zrotation
				End Site
				{
					OFFSET -1.725766 19.823910 0.000000
				}
			}
		}
	}
	JOINT Spine
	{
		OFFSET 0.000000 13.368103 0.470500
		CHANNELS 3 Xrotation Yrotation Zrotation
		JOINT Spine1
		{
			OFFSET 0.147000 13.837402 0.538800
			CHANNELS 3 Xrotation Yrotation Zrotation
			JOINT Spine2
			{
				OFFSET 0.168000 16.242897 -1.435500
				CHANNELS 3 Xrotation Yrotation Zrotation
				JOINT Neck
				{
					OFFSET 0.217200 18.631500 -1.679100
					CHANNELS 3 Xrotation Yrotation Zrotation
					JOINT Head
					{
						OFFSET 0.000000 6.599396 1.385900
						CHANNELS 3 Xrotation Yrotation Zrotation
						JOINT Hat
						{
							OFFSET -0.532200 27.220596 -10.096100
							CHANNELS 3 Xrotation Yrotation Zrotation
							End Site
							{
								OFFSET 0.000000 22.029861 0.000000
							}
						}
						JOINT HairD
						{
							OFFSET -10.777400 17.437393 -1.325900
							CHANNELS 3 Xrotation Yrotation Zrotation
							JOINT HairD1
							{
								OFFSET -3.290299 -11.051193 1.062200
								CHANNELS 3 Xrotation Yrotation Zrotation
								End Site
								{
									OFFSET 0.000000 11.579437 0.000000
								}
							}
						}
						JOINT HairB
						{
							OFFSET -10.777400 17.437393 1.467900
							CHANNELS 3 Xrotation Yrotation Zrotation
							JOINT HairB1
							{
								OFFSET -1.561200 -12.956299 3.590200
								CHANNELS 3 Xrotation Yrotation Zrotation
								End Site
								{
									OFFSET 0.000000 13.534866 0.000000
								}
							}
						}
						JOINT HairA
						{
							OFFSET 9.713100 17.437393 1.467900
							CHANNELS 3 Xrotation Yrotation Zrotation
							JOINT HairA1
							{
								OFFSET 1.561200 -12.956299 3.590200
								CHANNELS 3 Xrotation Yrotation Zrotation
								End Site
								{
									OFFSET 0.000000 13.534866 0.000000
								}
							}
						}
						JOINT HairC
						{
							OFFSET 9.713100 17.437393 -1.325900
							CHANNELS 3 Xrotation Yrotation Zrotation
							JOINT HairC1
							{
								OFFSET 3.290300 -11.051193 1.062200
								CHANNELS 3 Xrotation Yrotation Zrotation
								End Site
								{
									OFFSET 0.000000 11.579437 0.000000
								}
							}
						}
					}
				}
				JOINT LeftShoulder
				{
					OFFSET 5.101800 15.108002 -2.763700
					CHANNELS 3 Xrotation Yrotation Zrotation
					JOINT LeftArm
					{
						OFFSET 9.825497 2.506317 -1.597400
						CHANNELS 3 Xrotation Yrotation Zrotation
						JOINT LeftForeArm
						{
							OFFSET 21.966244 0.000000 0.000000
							CHANNELS 3 Xrotation Yrotation Zrotation
							JOINT LeftHand
							{
								OFFSET 33.879036 0.000000 0.000000
								CHANNELS 3 Xrotation Yrotation Zrotation
								JOINT LeftHandThumb1
								{
									OFFSET 6.715286 -2.359680 3.363841
									CHANNELS 3 Xrotation Yrotation Zrotation
									JOINT LeftHandThumb2
									{
										OFFSET 2.507072 -1.447464 1.447461
										CHANNELS 3 Xrotation Yrotation Zrotation
										JOINT LeftHandThumb3
										{
											OFFSET 2.898338 -1.673355 1.673357
											CHANNELS 3 Xrotation Yrotation Zrotation
											End Site
											{
												OFFSET -0.295959 3.727692 -0.131651
											}
										}
									}
								}
								JOINT LeftHandIndex1
								{
									OFFSET 14.190811 -0.254547 3.840278
									CHANNELS 3 Xrotation Yrotation Zrotation
									JOINT LeftHandIndex2
									{
										OFFSET 3.551727 0.000000 -0.000000
										CHANNELS 3 Xrotation Yrotation Zrotation
										JOINT LeftHandIndex3
										{
											OFFSET 2.894196 0.000000 0.000000
											CHANNELS 3 Xrotation Yrotation Zrotation
											End Site
											{
												OFFSET -1.000603 2.690872 0.366626
											}
										}
									}
								}
								JOINT LeftHandMiddle1
								{
									OFFSET 13.776489 0.000000 0.000000
									CHANNELS 3 Xrotation Yrotation Zrotation
									JOINT LeftHandMiddle2
									{
										OFFSET 3.438232 0.000000 0.000000
										CHANNELS 3 Xrotation Yrotation Zrotation
										JOINT LeftHandMiddle3
										{
											OFFSET 3.691551 0.000000 0.000000
											CHANNELS 3 Xrotation Yrotation Zrotation
											End Site
											{
												OFFSET -1.082298 3.499527 0.457670
											}
										}
									}
								}
								JOINT LeftHandRing1
								{
									OFFSET 13.966164 -0.268127 -3.067488
									CHANNELS 3 Xrotation Yrotation Zrotation
									JOINT LeftHandRing2
									{
										OFFSET 3.162567 0.000000 0.000000
										CHANNELS 3 Xrotation Yrotation Zrotation
										JOINT LeftHandRing3
										{
											OFFSET 3.324348 0.000000 0.000000
											CHANNELS 3 Xrotation Yrotation Zrotation
											End Site
											{
												OFFSET -0.861900 3.184998 0.405154
											}
										}
									}
								}
								JOINT LeftHandPinky1
								{
									OFFSET 13.131393 -0.168503 -5.746925
									CHANNELS 3 Xrotation Yrotation Zrotation
									JOINT LeftHandPinky2
									{
										OFFSET 2.849182 0.000000 0.000000
										CHANNELS 3 Xrotation Yrotation Zrotation
										JOINT LeftHandPinky3
										{
											OFFSET 2.805038 0.000000 0.000000
											CHANNELS 3 Xrotation Yrotation Zrotation
											End Site
											{
												OFFSET -0.882500 2.642609 0.325652
											}
										}
									}
								}
							}
							JOINT Left_Sleeve
							{
								OFFSET 6.592125 -0.646545 0.805568
								CHANNELS 3 Xrotation Yrotation Zrotation
								End Site
								{
									OFFSET -0.000179 20.275787 -0.000000
								}
							}
						}
					}
				}
				JOINT RightShoulder
				{
					OFFSET -5.731700 15.108002 -2.763700
					CHANNELS 3 Xrotation Yrotation Zrotation
					JOINT RightArm
					{
						OFFSET -9.825497 2.506317 -1.597400
						CHANNELS 3 Xrotation Yrotation Zrotation
						JOINT RightForeArm
						{
							OFFSET -21.966242 0.000000 0.000000
							CHANNELS 3 Xrotation Yrotation Zrotation
							JOINT RightHand
							{
								OFFSET -33.879032 0.000000 0.000000
								CHANNELS 3 Xrotation Yrotation Zrotation
								JOINT RightHandThumb1
								{
									OFFSET -6.715286 -2.359680 3.363841
									CHANNELS 3 Xrotation Yrotation Zrotation
									JOINT RightHandThumb2
									{
										OFFSET -2.507072 -1.447464 1.447461
										CHANNELS 3 Xrotation Yrotation Zrotation
										JOINT RightHandThumb3
										{
											OFFSET -2.898338 -1.673355 1.673357
											CHANNELS 3 Xrotation Yrotation Zrotation
											End Site
											{
												OFFSET 0.295959 3.727692 -0.131651
											}
										}
									}
								}
								JOINT RightHandIndex1
								{
									OFFSET -14.190811 -0.254547 3.840278
									CHANNELS 3 Xrotation Yrotation Zrotation
									JOINT RightHandIndex2
									{
										OFFSET -3.551727 0.000000 -0.000000
										CHANNELS 3 Xrotation Yrotation Zrotation
										JOINT RightHandIndex3
										{
											OFFSET -2.894196 0.000000 0.000000
											CHANNELS 3 Xrotation Yrotation Zrotation
											End Site
											{
												OFFSET 1.000603 2.690872 0.366626
											}
										}
									}
								}
								JOINT RightHandMiddle1
								{
									OFFSET -13.776489 0.000000 0.000000
									CHANNELS 3 Xrotation Yrotation Zrotation
									JOINT RightHandMiddle2
									{
										OFFSET -3.438232 0.000000 0.000000
										CHANNELS 3 Xrotation Yrotation Zrotation
										JOINT RightHandMiddle3
										{
											OFFSET -3.691551 0.000000 0.000000
											CHANNELS 3 Xrotation Yrotation Zrotation
											End Site
											{
												OFFSET 1.082298 3.499527 0.457670
											}
										}
									}
								}
								JOINT RightHandRing1
								{
									OFFSET -13.966164 -0.268127 -3.067488
									CHANNELS 3 Xrotation Yrotation Zrotation
									JOINT RightHandRing2
									{
										OFFSET -3.162567 0.000000 0.000000
										CHANNELS 3 Xrotation Yrotation Zrotation
										JOINT RightHandRing3
										{
											OFFSET -3.324348 0.000000 0.000000
											CHANNELS 3 Xrotation Yrotation Zrotation
											End Site
											{
												OFFSET 0.861900 3.184998 0.405154
											}
										}
									}
								}
								JOINT RightHandPinky1
								{
									OFFSET -13.131393 -0.168503 -5.746925
									CHANNELS 3 Xrotation Yrotation Zrotation
									JOINT RightHandPinky2
									{
										OFFSET -2.849182 0.000000 0.000000
										CHANNELS 3 Xrotation Yrotation Zrotation
										JOINT RightHandPinky3
										{
											OFFSET -2.805038 0.000000 0.000000
											CHANNELS 3 Xrotation Yrotation Zrotation
											End Site
											{
												OFFSET 0.882500 2.642609 0.325652
											}
										}
									}
								}
							}
							JOINT Right_Sleeve
							{
								OFFSET -6.592125 -0.646545 0.805568
								CHANNELS 3 Xrotation Yrotation Zrotation
								End Site
								{
									OFFSET 0.000179 20.275787 -0.000000
								}
							}
						}
					}
				}
				JOINT Bind_Right_JacketString
				{
					OFFSET -3.534800 11.969597 7.200700
					CHANNELS 3 Xrotation Yrotation Zrotation
					JOINT Bind_Right_JacketString1
					{
						OFFSET -0.319900 -6.102600 2.794100
						CHANNELS 3 Xrotation Yrotation Zrotation
						End Site
						{
							OFFSET 0.000000 6.719452 0.000000
						}
					}
				}
				JOINT Bind_Left_JacketString
				{
					OFFSET 2.904800 11.969597 7.200700
					CHANNELS 3 Xrotation Yrotation Zrotation
					JOINT Bind_Left_JacketString1
					{
						OFFSET 0.364800 -5.904503 3.186800
						CHANNELS 3 Xrotation Yrotation Zrotation
						End Site
						{
							OFFSET 0.000000 6.719513 0.000000
						}
					}
				}
				JOINT HairE
				{
					OFFSET 5.915200 17.612701 -11.592200
					CHANNELS 3 Xrotation Yrotation Zrotation
					JOINT HairE1
					{
						OFFSET 0.289200 -7.171898 -1.284500
						CHANNELS 3 Xrotation Yrotation Zrotation
						End Site
						{
							OFFSET 0.000000 7.291756 0.000000
						}
					}
				}
				JOINT HairF
				{
					OFFSET -0.864800 17.612701 -11.592200
					CHANNELS 3 Xrotation Yrotation Zrotation
					JOINT HairF1
					{
						OFFSET 0.000000 -14.087097 -2.127501
						CHANNELS 3 Xrotation Yrotation Zrotation
						End Site
						{
							OFFSET 0.000000 14.246841 0.000000
						}
					}
				}
				JOINT HairG
				{
					OFFSET -8.087700 17.612701 -11.592200
					CHANNELS 3 Xrotation Yrotation Zrotation
					JOINT HairG1
					{
						OFFSET -0.293600 -6.081398 -0.910100
						CHANNELS 3 Xrotation Yrotation Zrotation
						End Site
						{
							OFFSET 0.000000 6.156120 0.000000
						}
					}
				}
			}
		}
	}
	JOINT Pouch
	{
		OFFSET 0.000000 4.394501 10.847300
		CHANNELS 3 Xrotation Yrotation Zrotation
		End Site
		{
			OFFSET 0.000000 21.880577 0.000000
		}
	}
	JOINT Bag
	{
		OFFSET -13.229000 4.813004 -0.593300
		CHANNELS 3 Xrotation Yrotation Zrotation
		End Site
		{
			OFFSET 0.000000 21.880577 0.000000
		}
	}
	JOINT OccupyGuyFacialAnim_Joint
	{
		OFFSET 1.000000 -70.206398 -1.655000
		CHANNELS 3 Xrotation Yrotation Zrotation
		End Site
		{
			OFFSET 0.000000 21.880577 0.000000
		}
	}
}
MOTION
Frames: 5
Frame Time: 0.033333
-0.295666 54.730118 1.474482 16.580725 -6.685913 -1.136372 0.000003 0.000000 0.000000 -77.743085 -0.793664 0.395678 48.174308 8.572877 -1.798877 9.187896 28.841440 6.735651 -0.000000 -0.000002 -0.000000 -0.000001 -0.000000 -0.000000 3.977030 -11.663643 2.674716 57.291033 -14.694331 11.357020 -40.355906 -15.079529 16.485047 -0.000000 -0.000001 0.000002 0.000000 -0.000002 0.000000 10.634033 13.752452 -7.794928 2.869501 4.087944 -0.126404 2.861619 4.312288 -0.311448 -0.688855 -2.356468 4.369683 -6.930893 -9.320495 11.107278 -0.000000 0.000000 -0.000000 -0.000000 0.000000 -0.000000 -0.000000 0.000000 -0.000000 -0.000000 0.000000 -0.000000 -0.000000 -0.000000 -0.000000 -0.000000 0.000000 -0.000000 -0.000000 -0.000000 -0.000000 -0.000000 0.000000 -0.000000 -0.000000 0.000000 -0.000000 1.124715 -1.331171 -15.116529 -9.590828 31.513212 -40.008400 0.000002 -10.721321 0.000001 15.668201 -19.583472 20.990283 -6.117718 -6.366847 2.780097 8.370276 27.566155 0.984937 -0.000002 -0.000002 -0.000002 0.983862 -6.689576 -12.272287 0.237185 1.651677 -16.342792 0.000001 0.000001 -0.000002 -1.264336 -0.680471 -18.650052 0.387945 2.098223 -20.947900 0.000001 0.000001 -0.000003 0.028224 3.645188 -26.113072 0.502176 2.375022 -23.874347 -0.000000 -0.000001 -0.000003 -12.091372 12.080294 -31.349434 0.780417 2.923322 -29.888686 -0.000003 0.000001 -0.000001 0.000000 -0.000003 -0.000003 2.870347 11.957091 -6.152309 -33.803696 70.877583 6.927838 0.000003 94.709555 -0.000021 17.111791 20.467029 -11.105447 -15.299383 26.937107 3.983076 9.847757 -45.622590 -5.477551 -0.000001 0.000000 0.000003 0.300898 -4.371176 8.128023 0.169898 -1.247734 15.507871 0.000000 0.000000 0.000002 1.463459 -5.841554 32.827504 0.816448 -2.636013 34.413628 -0.000001 0.000003 0.000003 2.333278 -6.527562 43.827449 1.218021 -3.142191 42.367855 0.000001 0.000001 0.000003 0.246878 -10.821458 53.658687 1.765791 -3.652465 51.591441 -0.000003 0.000001 0.000001 -0.000001 0.000001 -0.000000 0.000001 -0.000001 0.000001 0.000002 0.000001 0.000000 0.000001 -0.000001 0.000001 0.000001 -0.000001 0.000001 0.000001 -0.000001 0.000001 0.000002 0.000001 0.000001 0.000001 -0.000001 0.000001 0.000001 -0.000001 0.000001 0.000001 -0.000001 0.000001 0.000002 0.000001 0.000001 0.000003 0.000000 0.000000 0.000003 0.000000 0.000000 0.000003 0.000000 0.000000 
-1.959196 54.564095 2.704895 18.447067 -5.782264 -0.601295 -0.000001 -0.000000 -0.000000 -80.398471 -0.622702 1.906370 51.990601 8.675577 -2.863166 6.857737 26.576124 6.020419 0.000000 0.000003 0.000000 0.000001 0.000000 0.000000 2.929412 -11.517621 2.062131 57.685797 -10.507631 11.538653 -33.487051 -13.359725 21.080517 -0.000002 0.000001 -0.000002 0.000000 0.000002 0.000000 9.808550 12.644763 -7.159129 3.672036 4.477610 -1.479273 3.473309 4.698327 -0.515981 -0.269978 -2.290807 3.800170 -6.270001 -9.710506 11.070435 0.000000 -0.000000 -0.000001 0.000000 -0.000000 -0.000001 0.000000 -0.000000 -0.000001 0.000000 -0.000000 -0.000001 0.000000 -0.000000 -0.000001 0.000000 -0.000000 -0.000001 0.000000 -0.000000 -0.000001 0.000000 -0.000000 -0.000001 0.000000 -0.000000 -0.000001 1.056015 -0.249019 -19.247074 -12.213397 30.041996 -34.389572 0.000007 -9.251974 -0.000014 9.436577 -10.225931 17.982821 -4.862249 -6.781577 0.420065 8.468250 28.443915 1.465340 0.000004 -0.000000 0.000001 0.717735 -6.541795 -15.027950 0.258845 1.723784 -17.078113 0.000001 0.000003 -0.000001 -1.049921 0.460438 -20.770284 0.507784 2.387643 -24.009276 0.000002 0.000001 -0.000003 0.703232 5.022520 -28.213555 0.722764 2.820792 -28.738192 0.000002 0.000002 0.000000 -9.956810 16.269072 -35.212562 1.080693 3.391903 -35.335909 -0.000002 -0.000001 -0.000003 0.000001 0.000000 0.000002 3.407529 16.480900 -12.281679 -40.103667 59.773123 9.452068 -0.000033 82.041418 0.000030 26.250160 24.324086 -18.356842 -15.299376 26.937113 3.983080 9.847786 -45.622576 -5.477519 -0.000000 -0.000001 0.000002 0.288650 -4.345190 7.790226 0.169906 -1.247750 15.507977 0.000003 0.000001 -0.000003 1.382654 -5.766739 31.510303 0.771022 -2.568507 33.413084 0.000000 -0.000001 -0.000001 2.233484 -6.470474 42.475768 1.093206 -2.999847 40.038501 0.000004 0.000001 0.000002 0.465857 -11.159436 51.747873 1.576651 -3.494486 48.557526 -0.000003 0.000001 -0.000001 0.000000 -0.000000 0.000000 0.000003 0.000001 -0.000000 0.000003 0.000001 -0.000001 0.000003 0.000001 -0.000000 0.000003 0.000001 -0.000000 0.000003 0.000001 -0.000000 0.000003 0.000001 -0.000000 0.000003 0.000001 -0.000000 0.000003 0.000001 -0.000000 0.000003 0.000001 -0.000000 0.000003 0.000001 -0.000000 -0.000001 -0.000000 -0.000000 -0.000001 -0.000000 -0.000000 -0.000001 -0.000000 -0.000000 
-3.536130 54.393173 3.854578 20.313970 -4.852102 -0.085758 0.000001 0.000000 -0.000000 -82.769482 -0.422028 3.465663 55.125658 8.760599 -3.959231 4.869105 24.222590 5.425049 -0.000000 -0.000000 -0.000000 -0.000001 -0.000000 -0.000000 1.851211 -11.802539 2.356885 57.518430 -6.717397 11.698540 -27.689363 -9.947154 19.524755 -0.000002 -0.000001 -0.000001 -0.000000 0.000000 0.000000 9.009779 11.530289 -6.536700 4.516702 4.874828 -2.863189 4.095900 5.099300 -0.721678 0.164092 -2.226022 3.230367 -5.600138 -10.113975 11.040670 0.000002 -0.000000 0.000000 0.000002 -0.000000 0.000000 0.000002 -0.000000 -0.000000 0.000002 -0.000000 -0.000000 0.000001 -0.000000 0.000000 0.000002 -0.000000 -0.000000 0.000001 -0.000000 0.000000 0.000002 -0.000000 0.000000 0.000002 -0.000000 0.000000 1.152706 0.981236 -23.600400 -14.897438 28.174595 -28.743389 -0.000001 -7.379991 -0.000001 3.728078 -0.638537 15.121730 -3.444929 -7.321994 -2.182519 8.578080 29.424482 2.000614 0.000001 0.000002 0.000001 0.424925 -6.371403 -18.104900 0.284132 1.804000 -17.899636 0.000002 0.000003 0.000002 -0.720961 1.709000 -23.148768 0.659770 2.702860 -27.430841 -0.000000 0.000001 0.000002 1.571006 6.501380 -30.590440 1.013053 3.294609 -34.176265 -0.000001 -0.000002 -0.000003 -6.409191 20.223813 -39.916165 1.474616 3.887332 -41.535606 0.000000 0.000004 -0.000000 -0.000000 0.000001 0.000002 4.583916 20.132992 -16.868605 -41.673043 47.994315 8.459346 -0.000002 73.569771 0.000002 33.665244 29.322105 -32.282831 -15.299376 26.937119 3.983074 9.847834 -45.622593 -5.477483 -0.000003 -0.000001 0.000001 0.269167 -4.303021 7.244055 0.169910 -1.247761 15.508088 -0.000000 0.000001 0.000001 1.294941 -5.681467 30.047884 0.721972 -2.492636 32.302123 -0.000002 -0.000000 0.000001 2.124331 -6.404393 40.975008 0.961543 -2.835978 37.452492 -0.000002 0.000000 -0.000002 0.785093 -11.527684 49.653819 1.376805 -3.307617 45.189611 -0.000003 -0.000004 0.000003 0.000001 -0.000000 -0.000000 0.000003 0.000001 -0.000001 0.000001 0.000001 -0.000000 0.000003 0.000001 -0.000001 0.000003 0.000001 -0.000001 0.000003 0.000001 -0.000001 0.000001 0.000001 -0.000000 0.000003 0.000001 -0.000001 0.000003 0.000001 -0.000001 0.000003 0.000001 -0.000001 0.000001 0.000001 -0.000000 0.000001 0.000000 -0.000000 0.000001 0.000000 -0.000000 0.000001 0.000000 -0.000000 
-5.136868 54.195618 5.003399 22.166798 -3.911457 0.420232 -0.000001 0.000000 -0.000000 -84.975729 -0.263861 5.146924 57.966122 8.762108 -5.062763 3.081572 21.832097 4.754262 -0.000000 -0.000000 -0.000000 -0.000000 0.000000 0.000000 -0.849636 -12.711849 2.512277 58.206175 -1.821531 11.535569 -21.471827 -6.358319 14.937542 0.000002 0.000003 -0.000002 0.000003 -0.000000 0.000000 8.239934 10.410780 -5.946289 5.372547 5.262980 -4.234028 4.716052 5.492759 -0.927097 0.590735 -2.160569 2.660765 -4.935513 -10.515143 11.007243 -0.000001 0.000000 0.000000 -0.000001 0.000000 0.000000 -0.000001 0.000000 0.000000 -0.000001 0.000000 0.000000 -0.000003 -0.000000 -0.000001 -0.000001 0.000000 0.000000 -0.000003 -0.000000 -0.000001 -0.000001 0.000000 0.000000 -0.000001 0.000000 0.000000 1.415739 2.047950 -27.867817 -17.597636 25.928949 -23.416183 0.000009 -5.692272 -0.000011 -0.904575 8.475816 12.348506 -1.964836 -7.966039 -4.835785 8.691119 30.439503 2.553487 -0.000004 0.000001 -0.000000 0.116308 -6.185309 -21.288759 0.311518 1.886640 -18.749986 0.000004 0.000001 -0.000000 -0.282607 2.966329 -25.624474 0.836662 3.018959 -30.973887 -0.000003 0.000003 0.000001 2.593154 7.957477 -33.087362 1.359631 3.753788 -39.809761 0.000001 -0.000001 -0.000001 -2.081624 23.814042 -45.106433 1.945455 4.360114 -48.075799 -0.000000 -0.000003 -0.000001 0.000003 -0.000004 0.000001 5.295076 22.009209 -18.395742 -41.138024 36.914000 6.927884 -0.000011 70.246501 0.000010 36.282781 31.819526 -41.158109 -15.299380 26.937107 3.983077 9.847881 -45.622583 -5.477426 -0.000000 -0.000000 0.000004 0.246851 -4.253361 6.604153 0.169913 -1.247767 15.508197 0.000002 -0.000001 0.000000 1.203545 -5.587798 28.483984 0.671148 -2.410446 31.113916 0.000001 -0.000000 -0.000003 2.009592 -6.330588 39.370126 0.829075 -2.654330 34.687140 -0.000000 0.000000 0.000003 1.151385 -11.946394 47.427133 1.175624 -3.095140 41.588540 0.000001 0.000000 -0.000005 0.000000 0.000001 0.000001 -0.000000 0.000000 0.000000 0.000001 0.000000 -0.000000 -0.000000 0.000000 0.000000 -0.000000 0.000000 0.000000 -0.000000 0.000000 0.000000 0.000001 0.000000 0.000000 -0.000000 0.000000 0.000000 -0.000000 0.000000 0.000000 -0.000000 0.000000 0.000000 0.000001 0.000000 0.000000 -0.000001 0.000000 -0.000000 -0.000001 0.000000 -0.000000 -0.000001 0.000000 -0.000000 
-6.884089 53.966324 6.250521 23.990440 -2.969104 0.917312 -0.000001 0.000000 -0.000000 -87.026329 -0.241180 7.054126 60.740845 8.570459 -6.148845 1.380690 19.461833 3.819882 -0.000000 -0.000000 -0.000000 0.000001 -0.000000 -0.000000 -4.778756 -14.076865 2.616424 60.418385 4.357980 11.229595 -16.512838 -3.488278 9.182963 0.000001 0.000001 0.000001 -0.000003 0.000001 -0.000000 7.497978 9.282209 -5.394637 6.205557 5.625999 -5.547403 5.320238 5.856248 -1.130771 0.987460 -2.092936 2.091881 -4.290496 -10.898810 10.959208 0.000003 -0.000000 -0.000000 0.000003 -0.000000 -0.000000 0.000003 -0.000000 0.000000 0.000003 -0.000000 -0.000000 0.000003 -0.000000 -0.000000 0.000003 -0.000000 -0.000000 0.000003 -0.000000 -0.000000 0.000003 -0.000000 -0.000000 0.000003 -0.000000 -0.000000 1.737992 2.665794 -31.730183 -20.298185 23.364948 -18.738503 -0.000000 -4.775746 -0.000007 -3.327665 15.987344 10.047254 -0.524791 -8.668915 -7.357981 8.798616 31.420451 3.087139 0.000000 -0.000000 0.000001 -0.197147 -5.989884 -24.365334 0.339135 1.966095 -19.571683 -0.000003 -0.000002 -0.000002 0.233845 4.141590 -28.032970 1.025927 3.313417 -34.399172 0.000001 0.000001 -0.000001 3.697861 9.284494 -35.538045 1.736047 4.163115 -45.258339 0.000001 0.000002 0.000000 2.710408 26.724063 -50.463719 2.454695 4.767220 -54.469273 -0.000001 0.000003 0.000003 0.000002 0.000000 -0.000000 5.202148 22.780009 -16.647464 -38.525989 26.841421 5.049698 -0.000014 69.315601 0.000013 30.623232 30.414819 -39.917644 -15.299383 26.937115 3.983080 9.847910 -45.622583 -5.477411 -0.000001 0.000000 0.000001 0.225797 -4.205089 5.985113 0.169915 -1.247771 15.508296 0.000001 -0.000001 0.000002 1.112928 -5.490844 26.862188 0.620247 -2.324094 29.881630 0.000002 -0.000001 -0.000003 1.889251 -6.246076 37.706008 0.701140 -2.459404 31.819799 -0.000003 0.000000 -0.000002 1.512861 -12.429893 45.118847 0.981556 -2.861881 37.855043 -0.000001 -0.000001 -0.000001 -0.000001 -0.000004 -0.000001 -0.000001 -0.000000 -0.000000 -0.000003 0.000000 0.000000 -0.000001 -0.000000 0.000001 -0.000001 -0.000000 0.000001 -0.000001 -0.000000 -0.000000 -0.000003 0.000000 0.000001 -0.000001 -0.000000 0.000001 -0.000001 -0.000000 0.000001 -0.000001 -0.000000 -0.000000 -0.000003 0.000000 0.000001 -0.000001 0.000000 -0.000000 -0.000001 0.000000 -0.000000 -0.000001 0.000000 -0.000000 
